<svg width="75" height="26" viewBox="0 0 75 26" fill="none" xmlns="http://www.w3.org/2000/svg">
<rect x="0.5" y="0.5" width="74" height="25" rx="4.5" fill="black" fill-opacity="0.4" stroke="white"/>
<path d="M13.3849 18V9.27273H18.6179V10.2102H14.4418V13.1591H18.2259V14.0966H14.4418V18H13.3849ZM22.5554 18.1364C21.9247 18.1364 21.3807 17.9972 20.9233 17.7188C20.4688 17.4375 20.1179 17.0455 19.8707 16.5426C19.6264 16.0369 19.5043 15.4489 19.5043 14.7784C19.5043 14.108 19.6264 13.517 19.8707 13.0057C20.1179 12.4915 20.4616 12.0909 20.902 11.804C21.3452 11.5142 21.8622 11.3693 22.4531 11.3693C22.794 11.3693 23.1307 11.4261 23.4631 11.5398C23.7955 11.6534 24.098 11.8381 24.3707 12.0938C24.6435 12.3466 24.8608 12.6818 25.0227 13.0994C25.1847 13.517 25.2656 14.0312 25.2656 14.642V15.0682H20.2202V14.1989H24.2429C24.2429 13.8295 24.169 13.5 24.0213 13.2102C23.8764 12.9205 23.669 12.6918 23.3991 12.5241C23.1321 12.3565 22.8168 12.2727 22.4531 12.2727C22.0526 12.2727 21.706 12.3722 21.4134 12.571C21.1236 12.767 20.9006 13.0227 20.7443 13.3381C20.5881 13.6534 20.5099 13.9915 20.5099 14.3523V14.9318C20.5099 15.4261 20.5952 15.8452 20.7656 16.1889C20.9389 16.5298 21.179 16.7898 21.4858 16.9688C21.7926 17.1449 22.1491 17.233 22.5554 17.233C22.8196 17.233 23.0582 17.196 23.2713 17.1222C23.4872 17.0455 23.6733 16.9318 23.8295 16.7812C23.9858 16.6278 24.1065 16.4375 24.1918 16.2102L25.1634 16.483C25.0611 16.8125 24.8892 17.1023 24.6477 17.3523C24.4063 17.5994 24.108 17.7926 23.7528 17.9318C23.3977 18.0682 22.9986 18.1364 22.5554 18.1364ZM28.7216 18.1534C28.3068 18.1534 27.9304 18.0753 27.5923 17.919C27.2543 17.7599 26.9858 17.5312 26.7869 17.233C26.5881 16.9318 26.4886 16.5682 26.4886 16.142C26.4886 15.767 26.5625 15.4631 26.7102 15.2301C26.858 14.9943 27.0554 14.8097 27.3026 14.6761C27.5497 14.5426 27.8224 14.4432 28.1207 14.3778C28.4219 14.3097 28.7244 14.2557 29.0284 14.2159C29.4261 14.1648 29.7486 14.1264 29.9957 14.1009C30.2457 14.0724 30.4276 14.0256 30.5412 13.9602C30.6577 13.8949 30.7159 13.7812 30.7159 13.6193V13.5852C30.7159 13.1648 30.6009 12.8381 30.3707 12.6051C30.1435 12.3722 29.7983 12.2557 29.3352 12.2557C28.8551 12.2557 28.4787 12.3608 28.206 12.571C27.9332 12.7812 27.7415 13.0057 27.6307 13.2443L26.6761 12.9034C26.8466 12.5057 27.0739 12.196 27.358 11.9744C27.6449 11.75 27.9574 11.5937 28.2955 11.5057C28.6364 11.4148 28.9716 11.3693 29.3011 11.3693C29.5114 11.3693 29.7528 11.3949 30.0256 11.446C30.3011 11.4943 30.5668 11.5952 30.8224 11.7486C31.081 11.902 31.2955 12.1335 31.4659 12.4432C31.6364 12.7528 31.7216 13.1676 31.7216 13.6875V18H30.7159V17.1136H30.6648C30.5966 17.2557 30.483 17.4077 30.3239 17.5696C30.1648 17.7315 29.9531 17.8693 29.6889 17.983C29.4247 18.0966 29.1023 18.1534 28.7216 18.1534ZM28.875 17.25C29.2727 17.25 29.608 17.1719 29.8807 17.0156C30.1563 16.8594 30.3636 16.6577 30.5028 16.4105C30.6449 16.1634 30.7159 15.9034 30.7159 15.6307V14.7102C30.6733 14.7614 30.5795 14.8082 30.4347 14.8509C30.2926 14.8906 30.1278 14.9261 29.9403 14.9574C29.7557 14.9858 29.5753 15.0114 29.3991 15.0341C29.2259 15.054 29.0852 15.071 28.9773 15.0852C28.7159 15.1193 28.4716 15.1747 28.2443 15.2514C28.0199 15.3253 27.8381 15.4375 27.6989 15.5881C27.5625 15.7358 27.4943 15.9375 27.4943 16.1932C27.4943 16.5426 27.6236 16.8068 27.8821 16.9858C28.1435 17.1619 28.4744 17.25 28.875 17.25ZM36.4038 11.4545V12.3068H33.0117V11.4545H36.4038ZM34.0004 9.88636H35.006V16.125C35.006 16.4091 35.0472 16.6222 35.1296 16.7642C35.2148 16.9034 35.3228 16.9972 35.4535 17.0455C35.587 17.0909 35.7276 17.1136 35.8754 17.1136C35.9862 17.1136 36.0771 17.108 36.1481 17.0966C36.2191 17.0824 36.2759 17.071 36.3185 17.0625L36.5231 17.9659C36.4549 17.9915 36.3597 18.017 36.2376 18.0426C36.1154 18.071 35.9606 18.0852 35.7731 18.0852C35.489 18.0852 35.2106 18.0241 34.9379 17.902C34.668 17.7798 34.4435 17.5938 34.2646 17.3438C34.0884 17.0938 34.0004 16.7784 34.0004 16.3977V9.88636ZM42.0415 15.3239V11.4545H43.0472V18H42.0415V16.892H41.9734C41.82 17.2244 41.5813 17.5071 41.2575 17.7401C40.9336 17.9702 40.5245 18.0852 40.0302 18.0852C39.6211 18.0852 39.2575 17.9957 38.9393 17.8168C38.6211 17.6349 38.3711 17.3622 38.1893 16.9986C38.0075 16.6321 37.9165 16.1705 37.9165 15.6136V11.4545H38.9222V15.5455C38.9222 16.0227 39.0558 16.4034 39.3228 16.6875C39.5927 16.9716 39.9364 17.1136 40.354 17.1136C40.604 17.1136 40.8583 17.0497 41.1168 16.9219C41.3782 16.794 41.5969 16.598 41.7731 16.3338C41.9521 16.0696 42.0415 15.733 42.0415 15.3239ZM44.8892 18V11.4545H45.8608V12.4432H45.929C46.0483 12.1193 46.2642 11.8565 46.5767 11.6548C46.8892 11.4531 47.2415 11.3523 47.6335 11.3523C47.7074 11.3523 47.7997 11.3537 47.9105 11.3565C48.0213 11.3594 48.1051 11.3636 48.1619 11.3693V12.392C48.1278 12.3835 48.0497 12.3707 47.9276 12.3537C47.8082 12.3338 47.6818 12.3239 47.5483 12.3239C47.2301 12.3239 46.946 12.3906 46.696 12.5241C46.4489 12.6548 46.2528 12.8366 46.108 13.0696C45.9659 13.2997 45.8949 13.5625 45.8949 13.858V18H44.8892ZM51.8991 18.1364C51.2685 18.1364 50.7244 17.9972 50.267 17.7188C49.8125 17.4375 49.4616 17.0455 49.2145 16.5426C48.9702 16.0369 48.848 15.4489 48.848 14.7784C48.848 14.108 48.9702 13.517 49.2145 13.0057C49.4616 12.4915 49.8054 12.0909 50.2457 11.804C50.6889 11.5142 51.206 11.3693 51.7969 11.3693C52.1378 11.3693 52.4744 11.4261 52.8068 11.5398C53.1392 11.6534 53.4418 11.8381 53.7145 12.0938C53.9872 12.3466 54.2045 12.6818 54.3665 13.0994C54.5284 13.517 54.6094 14.0312 54.6094 14.642V15.0682H49.5639V14.1989H53.5866C53.5866 13.8295 53.5128 13.5 53.3651 13.2102C53.2202 12.9205 53.0128 12.6918 52.7429 12.5241C52.4759 12.3565 52.1605 12.2727 51.7969 12.2727C51.3963 12.2727 51.0497 12.3722 50.7571 12.571C50.4673 12.767 50.2443 13.0227 50.0881 13.3381C49.9318 13.6534 49.8537 13.9915 49.8537 14.3523V14.9318C49.8537 15.4261 49.9389 15.8452 50.1094 16.1889C50.2827 16.5298 50.5227 16.7898 50.8295 16.9688C51.1364 17.1449 51.4929 17.233 51.8991 17.233C52.1634 17.233 52.402 17.196 52.6151 17.1222C52.831 17.0455 53.017 16.9318 53.1733 16.7812C53.3295 16.6278 53.4503 16.4375 53.5355 16.2102L54.5071 16.483C54.4048 16.8125 54.233 17.1023 53.9915 17.3523C53.75 17.5994 53.4517 17.7926 53.0966 17.9318C52.7415 18.0682 52.3423 18.1364 51.8991 18.1364ZM58.6108 18.1364C58.0653 18.1364 57.5838 17.9986 57.1662 17.723C56.7486 17.4446 56.4219 17.0526 56.1861 16.5469C55.9503 16.0384 55.8324 15.4375 55.8324 14.7443C55.8324 14.0568 55.9503 13.4602 56.1861 12.9545C56.4219 12.4489 56.75 12.0582 57.1705 11.7827C57.5909 11.5071 58.0767 11.3693 58.6278 11.3693C59.054 11.3693 59.3906 11.4403 59.6378 11.5824C59.8878 11.7216 60.0781 11.8807 60.2088 12.0597C60.3423 12.2358 60.446 12.3807 60.5199 12.4943H60.6051V9.27273H61.6108V18H60.6392V16.9943H60.5199C60.446 17.1136 60.3409 17.2642 60.2045 17.446C60.0682 17.625 59.8736 17.7855 59.6207 17.9276C59.3679 18.0668 59.0313 18.1364 58.6108 18.1364ZM58.7472 17.233C59.1506 17.233 59.4915 17.1278 59.7699 16.9176C60.0483 16.7045 60.2599 16.4105 60.4048 16.0355C60.5497 15.6577 60.6222 15.2216 60.6222 14.7273C60.6222 14.2386 60.5511 13.8111 60.4091 13.4446C60.267 13.0753 60.0568 12.7884 59.7784 12.5838C59.5 12.3764 59.1563 12.2727 58.7472 12.2727C58.321 12.2727 57.9659 12.3821 57.6818 12.6009C57.4006 12.8168 57.1889 13.1108 57.0469 13.483C56.9077 13.8523 56.8381 14.267 56.8381 14.7273C56.8381 15.1932 56.9091 15.6165 57.0511 15.9972C57.196 16.375 57.4091 16.6761 57.6903 16.9006C57.9744 17.1222 58.3267 17.233 58.7472 17.233Z" fill="white"/>
</svg>
