<svg width="64" height="17" viewBox="0 0 64 17" fill="none" xmlns="http://www.w3.org/2000/svg">
<path d="M10.827 0.5H13.233V9.85234C13.233 14.7729 10.6675 16.5 6.94544 16.5C3.23673 16.5 0.671204 14.7729 0.671204 9.85234V0.874745C0.671204 0.614053 0.777547 0.5 0.990233 0.5H3.39624V9.7057C3.39624 12.6548 4.45967 13.8768 6.94544 13.8768C9.44451 13.8768 10.5079 12.6548 10.5079 9.7057V0.874745C10.5079 0.614053 10.6143 0.5 10.827 0.5ZM38.0641 3.05804V7.00102H44.1522C44.2586 7.00102 44.2984 7.06619 44.2586 7.19654L43.5939 9.2169C43.5275 9.39613 43.4344 9.4776 43.235 9.4776H39.6592C38.4895 9.4776 38.0641 9.91752 38.0641 10.8788V13.665H46.3057C46.412 13.665 46.4519 13.7301 46.412 13.8605L45.7208 15.9623C45.6543 16.1415 45.5613 16.223 45.3619 16.223H36.336C35.6448 16.223 35.3789 15.9297 35.3789 15.2943V1.59165C35.3789 0.825866 35.7245 0.5 36.6285 0.5H46.3057C46.412 0.5 46.4519 0.565173 46.412 0.679226L45.7208 2.79735C45.6543 2.97658 45.5613 3.05804 45.3619 3.05804H38.0641ZM30.4207 11.8727C30.4207 15.0173 28.6128 16.223 26.0739 16.223H19.3477C18.6432 16.223 18.3906 15.9297 18.3906 15.2943V1.59165C18.3906 0.825866 18.7229 0.5 19.6401 0.5H25.1035C27.4962 0.5 29.8092 1.00509 29.8092 4.49185C29.8092 5.99084 29.3705 7.26171 28.3204 7.92974C29.7693 8.40224 30.4207 9.99898 30.4207 11.8727ZM21.0359 7.0499H25.3029C26.712 7.0499 27.1107 6.38187 27.1107 5.01324C27.1107 3.6446 26.712 2.99287 25.3029 2.99287H21.0359V7.0499ZM27.7222 11.5794C27.7222 10.1293 27.3101 9.41242 25.7948 9.41242H22.6443C21.4746 9.41242 21.0359 9.85234 21.0359 10.8136V13.7301H25.7948C27.3101 13.7301 27.7222 13.0132 27.7222 11.5794ZM63.0813 16.223H60.6354C60.436 16.223 60.3562 16.1253 60.2765 15.9623L57.6844 10.2271H55.305C54.1352 10.2271 53.6965 10.667 53.6965 11.6283V16.223H51.357C51.1443 16.223 51.0379 16.0927 51.0379 15.8483V1.59165C51.0379 0.825866 51.3836 0.5 52.2875 0.5H57.7774C60.981 0.5 62.9085 1.52648 62.9085 5.3391C62.9085 8.28819 61.752 9.44501 60.3164 9.90122L63.2009 15.946C63.2541 16.0438 63.2541 16.223 63.0813 16.223ZM60.21 5.40428C60.21 3.80754 59.8511 3.02546 58.1762 3.02546H53.6965V7.7831H58.1762C59.8511 7.7831 60.21 7.01731 60.21 5.40428Z" fill="#718087"/>
</svg>
